<svg width="250" viewBox="0 0 1518 1267" fill="none" xmlns="http://www.w3.org/2000/svg">
<g id="cart">
<g id="box">
<path id="Vector" d="M1070.97 908.168L901.443 788.246C958.617 732.541 1010.62 653.222 1060.35 563.54L1229.87 683.462C1162.13 760.406 1104.75 835.918 1070.97 908.168Z" fill="#639EFF"/>
<path id="Vector_2" d="M1071.01 780.49C1098.65 780.49 1121.05 758.085 1121.05 730.448C1121.05 702.81 1098.65 680.406 1071.01 680.406C1043.38 680.406 1020.98 702.81 1020.98 730.448C1020.98 758.085 1043.38 780.49 1071.01 780.49Z" fill="white"/>
</g>
<path id="Vector_3" d="M253.485 361H234.515C233.848 361 233.208 361.256 232.737 361.713C232.265 362.169 232 362.788 232 363.434V371.492C232 371.812 232.065 372.128 232.191 372.424C232.318 372.719 232.503 372.987 232.737 373.213C232.97 373.439 233.247 373.619 233.553 373.741C233.858 373.863 234.185 373.926 234.515 373.926H237.659V386H250.341V373.926H253.485C254.152 373.926 254.792 373.67 255.263 373.213C255.735 372.757 256 372.138 256 371.492V363.434C256 362.788 255.735 362.169 255.263 361.713C254.792 361.256 254.152 361 253.485 361V361Z" fill="#E6E6E6"/>
<path id="Vector_4" opacity="0.2" d="M249 364C249 365.326 248.473 366.598 247.535 367.535C246.598 368.473 245.326 369 244 369C242.674 369 241.402 368.473 240.465 367.535C239.527 366.598 239 365.326 239 364" fill="black"/>
<g id="bottle">
<path id="Vector_5" d="M641.309 611.661H606.475C605.25 611.661 604.076 612.148 603.21 613.014C602.344 613.88 601.857 615.055 601.857 616.28V631.572C601.857 632.797 602.344 633.972 603.21 634.838C604.076 635.704 605.25 636.191 606.475 636.191H612.248V659.103H635.536V636.191H641.309C642.533 636.191 643.708 635.704 644.574 634.838C645.44 633.972 645.927 632.797 645.927 631.572V616.28C645.927 615.055 645.44 613.88 644.574 613.014C643.708 612.148 642.533 611.661 641.309 611.661V611.661Z" fill="#E6E6E6"/>
<path id="Vector_6" d="M676.198 751.612C654.865 720.391 643.959 683.218 645.043 645.418C645.062 644.546 644.779 643.694 644.242 643.007C643.704 642.32 642.946 641.84 642.095 641.649V635.041H605.306V641.557H604.799C604.303 641.557 603.813 641.656 603.355 641.846C602.897 642.036 602.481 642.315 602.131 642.666C601.781 643.017 601.504 643.434 601.315 643.892C601.125 644.35 601.028 644.841 601.029 645.337C601.029 645.429 601.033 645.52 601.04 645.612C603.938 686.02 594.151 722.256 571.679 754.322C570.386 756.165 569.726 758.378 569.797 760.628L573.819 885.081C573.916 887.857 575.081 890.488 577.071 892.425C579.061 894.363 581.722 895.457 584.499 895.479H667.709C670.518 895.456 673.207 894.337 675.203 892.361C677.199 890.384 678.344 887.706 678.395 884.897L679.945 764.064C679.991 759.629 678.684 755.285 676.198 751.612V751.612Z" fill="#639EFF"/>
<path id="Vector_7" opacity="0.2" d="M634.047 616.644C634.047 619.287 632.997 621.821 631.129 623.69C629.26 625.559 626.726 626.609 624.083 626.609C621.441 626.609 618.907 625.559 617.038 623.69C615.17 621.821 614.12 619.287 614.12 616.644" fill="black"/>
<path id="Vector_8" d="M663.025 792.952H590.597C589.525 792.952 588.466 793.184 587.492 793.632C586.517 794.079 585.652 794.733 584.954 795.546C584.255 796.36 583.742 797.316 583.447 798.347C583.153 799.378 583.085 800.46 583.248 801.52L594.193 872.674H657.04L670.334 801.76C670.535 800.686 670.498 799.58 670.223 798.523C669.949 797.465 669.445 796.481 668.748 795.64C668.05 794.799 667.175 794.122 666.186 793.657C665.197 793.193 664.118 792.952 663.025 792.952V792.952Z" fill="white"/>
</g>
<path id="Vector_9" d="M1172 926H512.746L373.142 265.63H254V236H397.144L536.748 896.367H1172V926Z" fill="#3F3D56"/>
<path id="Vector_10" d="M1160.26 912H518.273L405 352H1266.56C1270.96 352 1275.3 352.954 1279.3 354.794C1283.29 356.634 1286.84 359.318 1289.69 362.66C1292.55 366.002 1294.65 369.924 1295.85 374.156C1297.05 378.388 1297.31 382.829 1296.63 387.173L1190.33 886.278C1189.23 893.459 1185.59 900.007 1180.07 904.728C1174.55 909.449 1167.52 912.03 1160.26 912V912ZM525.244 903.528H1160.26C1165.5 903.55 1170.58 901.687 1174.56 898.28C1178.54 894.872 1181.17 890.146 1181.96 884.963L1288.26 385.858C1288.76 382.722 1288.56 379.517 1287.7 376.462C1286.84 373.408 1285.32 370.577 1283.26 368.164C1281.2 365.752 1278.64 363.815 1275.75 362.487C1272.87 361.159 1269.74 360.471 1266.56 360.472H415.279L525.244 903.528Z" fill="#3F3D56"/>
<path id="Vector_11" d="M643.599 910L569 357.379L577.401 356L652 908.621L643.599 910Z" fill="#3F3D56"/>
<path id="Vector_12" d="M1055.43 906L1047 904.645L1119.57 356L1128 357.355L1055.43 906Z" fill="#3F3D56"/>
<path id="Vector_13" d="M859 357H851V910H859V357Z" fill="#3F3D56"/>
<path id="Vector_14" d="M448.595 504.891L448.574 513.358L1268.08 515.343L1268.1 506.875L448.595 504.891Z" fill="#3F3D56"/>
<path id="Vector_15" d="M1210.27 766.46L490.317 771.382L490.375 779.85L1210.33 774.928L1210.27 766.46Z" fill="#3F3D56"/>
<path id="Vector_16" d="M266.5 272C292.181 272 313 260.583 313 246.5C313 232.417 292.181 221 266.5 221C240.819 221 220 232.417 220 246.5C220 260.583 240.819 272 266.5 272Z" fill="#3F3D56"/>
<g id="left-wheel">
<g id="Vector_17" filter="url(#filter0_d)">
<path d="M609.44 1046.81C644.508 1046.81 672.936 1018.38 672.936 983.304C672.936 948.23 644.508 919.798 609.44 919.798C574.373 919.798 545.945 948.23 545.945 983.304C545.945 1018.38 574.373 1046.81 609.44 1046.81Z" fill="#3F3D56"/>
</g>
<path id="Vector 1" d="M568.34 1019.51L656.151 936.052" stroke="#E6E6E6"/>
</g>
<g id="right-wheel">
<path id="Vector_18" d="M1083.54 1046.81C1118.61 1046.81 1147.04 1018.38 1147.04 983.304C1147.04 948.23 1118.61 919.798 1083.54 919.798C1048.47 919.798 1020.05 948.23 1020.05 983.304C1020.05 1018.38 1048.47 1046.81 1083.54 1046.81Z" fill="#3F3D56"/>
<path id="Vector 2" d="M1133.23 1024.41L1044.4 942.039" stroke="white"/>
</g>
</g>
<defs>
<filter id="filter0_d" x="541.945" y="919.798" width="134.991" height="135.012" filterUnits="userSpaceOnUse" color-interpolation-filters="sRGB">
<feFlood flood-opacity="0" result="BackgroundImageFix"/>
<feColorMatrix in="SourceAlpha" type="matrix" values="0 0 0 0 0 0 0 0 0 0 0 0 0 0 0 0 0 0 127 0"/>
<feOffset dy="4"/>
<feGaussianBlur stdDeviation="2"/>
<feColorMatrix type="matrix" values="0 0 0 0 0 0 0 0 0 0 0 0 0 0 0 0 0 0 0.25 0"/>
<feBlend mode="normal" in2="BackgroundImageFix" result="effect1_dropShadow"/>
<feBlend mode="normal" in="SourceGraphic" in2="effect1_dropShadow" result="shape"/>
</filter>
</defs>
</svg>
